<?xml version="1.0" encoding="UTF-8"?>
<!DOCTYPE svg PUBLIC "-//W3C//DTD SVG 1.1//EN" "http://www.w3.org/Graphics/SVG/1.1/DTD/svg11.dtd">
<svg xmlns="http://www.w3.org/2000/svg" version="1.1" width="100px" height="100px" style="shape-rendering:geometricPrecision; text-rendering:geometricPrecision; image-rendering:optimizeQuality; fill-rule:evenodd; clip-rule:evenodd" xmlns:xlink="http://www.w3.org/1999/xlink">
<g><path style="opacity:0.974" fill="#fefffe" d="M 39.5,3.5 C 67.9223,0.452161 86.4223,12.4522 95,39.5C 98.5361,67.9428 86.7027,86.4428 59.5,95C 31.0572,98.5361 12.5572,86.7027 4,59.5C 0.672469,31.0314 12.5058,12.3647 39.5,3.5 Z M 33.5,31.5 C 36.8333,31.5 40.1667,31.5 43.5,31.5C 43.5,43.5 43.5,55.5 43.5,67.5C 40.1667,67.5 36.8333,67.5 33.5,67.5C 33.5,55.5 33.5,43.5 33.5,31.5 Z M 55.5,31.5 C 58.8333,31.5 62.1667,31.5 65.5,31.5C 65.5,43.5 65.5,55.5 65.5,67.5C 62.1667,67.5 58.8333,67.5 55.5,67.5C 55.5,55.5 55.5,43.5 55.5,31.5 Z"/></g>
</svg>
