<?xml version="1.0" encoding="UTF-8"?>
<!DOCTYPE svg PUBLIC "-//W3C//DTD SVG 1.1//EN" "http://www.w3.org/Graphics/SVG/1.1/DTD/svg11.dtd">
<svg xmlns="http://www.w3.org/2000/svg" version="1.1" width="100px" height="100px" style="shape-rendering:geometricPrecision; text-rendering:geometricPrecision; image-rendering:optimizeQuality; fill-rule:evenodd; clip-rule:evenodd" xmlns:xlink="http://www.w3.org/1999/xlink">
<g><path style="opacity:0.95" fill="#fefffe" d="M 44.5,2.5 C 68.553,2.38881 82.2197,14.2221 85.5,38C 83.0193,55.1273 75.8526,69.9606 64,82.5C 59.3186,87.3485 54.4852,92.0152 49.5,96.5C 35.4181,84.9297 24.5848,70.9297 17,54.5C 10.2279,36.6197 14.0612,21.453 28.5,9C 33.6069,5.93542 38.9402,3.76876 44.5,2.5 Z M 39.5,23.5 C 45.2617,23.1493 50.9284,23.6493 56.5,25C 60.8754,30.1213 60.2087,34.4546 54.5,38C 63.3836,42.5102 63.7169,47.5102 55.5,53C 50.1771,53.4994 44.8437,53.666 39.5,53.5C 39.5,43.5 39.5,33.5 39.5,23.5 Z"/></g>
<g><path style="opacity:0.797" fill="#fefffe" d="M 42.5,26.5 C 46.1817,26.3347 49.8484,26.5014 53.5,27C 56.9779,29.7065 57.3112,32.7065 54.5,36C 50.5598,37.0153 46.5598,37.5153 42.5,37.5C 42.5,33.8333 42.5,30.1667 42.5,26.5 Z"/></g>
<g><path style="opacity:0.819" fill="#fefffe" d="M 42.5,39.5 C 46.722,39.2627 50.8886,39.596 55,40.5C 58.0799,43.4904 58.2466,46.657 55.5,50C 51.2486,51.1946 46.9152,51.6946 42.5,51.5C 42.5,47.5 42.5,43.5 42.5,39.5 Z"/></g>
</svg>
