<?xml version="1.0" encoding="UTF-8"?>
<!DOCTYPE svg PUBLIC "-//W3C//DTD SVG 1.1//EN" "http://www.w3.org/Graphics/SVG/1.1/DTD/svg11.dtd">
<svg xmlns="http://www.w3.org/2000/svg" version="1.1" width="100px" height="100px" style="shape-rendering:geometricPrecision; text-rendering:geometricPrecision; image-rendering:optimizeQuality; fill-rule:evenodd; clip-rule:evenodd" xmlns:xlink="http://www.w3.org/1999/xlink">
<g><path style="opacity:0.971" fill="#fefffe" d="M 44.5,5.5 C 47.6852,5.01964 50.5185,5.68631 53,7.5C 53.6667,35.1667 53.6667,62.8333 53,90.5C 52.2421,92.9096 50.5754,93.9096 48,93.5C 46.0326,93.4581 44.1992,92.9581 42.5,92C 34.3333,83.8333 26.1667,75.6667 18,67.5C 17.3333,55.5 17.3333,43.5 18,31.5C 26.7285,22.6037 35.5618,13.9371 44.5,5.5 Z"/></g>
<g><path style="opacity:0.935" fill="#fefffe" d="M -0.5,65.5 C -0.5,54.8333 -0.5,44.1667 -0.5,33.5C 4.0723,30.8667 9.0723,29.8667 14.5,30.5C 13.1667,43.1667 13.1667,55.8333 14.5,68.5C 9.0723,69.1333 4.0723,68.1333 -0.5,65.5 Z"/></g>
<g><path style="opacity:0.808" fill="#fefffe" d="M 62.5,36.5 C 66.438,39.0985 70.1047,42.0985 73.5,45.5C 76.3174,43.1833 78.9841,40.6833 81.5,38C 83.1124,37.2797 84.6124,37.4464 86,38.5C 86.6667,39.1667 86.6667,39.8333 86,40.5C 82.9838,43.3489 80.1504,46.3489 77.5,49.5C 80.1504,52.6511 82.9838,55.6511 86,58.5C 86.6172,59.4491 86.4506,60.2825 85.5,61C 84.1667,61.6667 82.8333,61.6667 81.5,61C 78.9841,58.3167 76.3174,55.8167 73.5,53.5C 70.6826,55.8167 68.0159,58.3167 65.5,61C 63.8876,61.7203 62.3876,61.5536 61,60.5C 60.3333,59.8333 60.3333,59.1667 61,58.5C 64.0162,55.6511 66.8496,52.6511 69.5,49.5C 66.8496,46.3489 64.0162,43.3489 61,40.5C 60.7003,38.9343 61.2003,37.601 62.5,36.5 Z"/></g>
</svg>
