<?xml version="1.0" encoding="UTF-8"?>
<!DOCTYPE svg PUBLIC "-//W3C//DTD SVG 1.1//EN" "http://www.w3.org/Graphics/SVG/1.1/DTD/svg11.dtd">
<svg xmlns="http://www.w3.org/2000/svg" version="1.1" width="100px" height="100px" style="shape-rendering:geometricPrecision; text-rendering:geometricPrecision; image-rendering:optimizeQuality; fill-rule:evenodd; clip-rule:evenodd" xmlns:xlink="http://www.w3.org/1999/xlink">
<g><path style="opacity:0.951" fill="#fefffe" d="M 59.5,8.5 C 62.0562,9.54341 64.2228,11.2101 66,13.5C 66.5074,14.9961 66.0074,16.1627 64.5,17C 70.5,17.3333 76.5,17.6667 82.5,18C 84.3333,19.1667 85.8333,20.6667 87,22.5C 87.6667,40.5 87.6667,58.5 87,76.5C 85.8333,78.3333 84.3333,79.8333 82.5,81C 72.8391,81.4998 63.1724,81.6665 53.5,81.5C 53.5,78.8333 53.5,76.1667 53.5,73.5C 61.5069,73.6664 69.5069,73.4997 77.5,73C 78,72.5 78.5,72 79,71.5C 79.6667,56.8333 79.6667,42.1667 79,27.5C 78.5,27 78,26.5 77.5,26C 73.1667,25.3333 68.8333,25.3333 64.5,26C 65.3567,26.6891 66.0233,27.5224 66.5,28.5C 64.8333,30.8333 62.8333,32.8333 60.5,34.5C 55.8333,30.5 51.5,26.1667 47.5,21.5C 51.5219,17.1465 55.5219,12.8131 59.5,8.5 Z"/></g>
<g><path style="opacity:0.951" fill="#fefffe" d="M 16.5,17.5 C 26.1667,17.5 35.8333,17.5 45.5,17.5C 45.5,20.1667 45.5,22.8333 45.5,25.5C 37.4931,25.3336 29.4931,25.5003 21.5,26C 21,26.5 20.5,27 20,27.5C 19.3333,42.1667 19.3333,56.8333 20,71.5C 20.5,72 21,72.5 21.5,73C 25.8333,73.6667 30.1667,73.6667 34.5,73C 33.6433,72.3109 32.9767,71.4776 32.5,70.5C 34.1667,68.1667 36.1667,66.1667 38.5,64.5C 43.1667,68.5 47.5,72.8333 51.5,77.5C 47.5,82.1667 43.1667,86.5 38.5,90.5C 36.1667,88.8333 34.1667,86.8333 32.5,84.5C 32.9767,83.5224 33.6433,82.6891 34.5,82C 28.5,81.6667 22.5,81.3333 16.5,81C 14.6667,79.8333 13.1667,78.3333 12,76.5C 11.3333,58.5 11.3333,40.5 12,22.5C 13.3657,20.6383 14.8657,18.9717 16.5,17.5 Z"/></g>
</svg>
