<?xml version="1.0" encoding="UTF-8"?>
<!DOCTYPE svg PUBLIC "-//W3C//DTD SVG 1.1//EN" "http://www.w3.org/Graphics/SVG/1.1/DTD/svg11.dtd">
<svg xmlns="http://www.w3.org/2000/svg" version="1.1" width="100px" height="100px" style="shape-rendering:geometricPrecision; text-rendering:geometricPrecision; image-rendering:optimizeQuality; fill-rule:evenodd; clip-rule:evenodd" xmlns:xlink="http://www.w3.org/1999/xlink">
<g><path style="opacity:0.953" fill="#fefffe" d="M 44.5,2.5 C 68.553,2.38881 82.2197,14.2221 85.5,38C 83.0193,55.1273 75.8526,69.9606 64,82.5C 59.3186,87.3485 54.4852,92.0152 49.5,96.5C 35.4181,84.9297 24.5848,70.9297 17,54.5C 10.2279,36.6197 14.0612,21.453 28.5,9C 33.6069,5.93542 38.9402,3.76876 44.5,2.5 Z M 47.5,23.5 C 49.451,23.2267 50.951,23.8934 52,25.5C 55.4744,34.7569 58.641,44.0903 61.5,53.5C 60.325,53.719 59.325,53.3857 58.5,52.5C 57.4229,50.2706 56.7563,47.9372 56.5,45.5C 51.8333,45.5 47.1667,45.5 42.5,45.5C 41.8333,48.1667 41.1667,50.8333 40.5,53.5C 39.5,53.5 38.5,53.5 37.5,53.5C 40.6318,43.4379 43.9651,33.4379 47.5,23.5 Z"/></g>
<g><path style="opacity:0.772" fill="#fefffe" d="M 48.5,28.5 C 49.7498,28.5774 50.5831,29.244 51,30.5C 52.4774,34.4299 53.6441,38.4299 54.5,42.5C 51.1667,42.5 47.8333,42.5 44.5,42.5C 45.6304,37.7756 46.9637,33.1089 48.5,28.5 Z"/></g>
</svg>
