<?xml version="1.0" encoding="UTF-8"?>
<!DOCTYPE svg PUBLIC "-//W3C//DTD SVG 1.1//EN" "http://www.w3.org/Graphics/SVG/1.1/DTD/svg11.dtd">
<svg xmlns="http://www.w3.org/2000/svg" version="1.1" width="100px" height="100px" style="shape-rendering:geometricPrecision; text-rendering:geometricPrecision; image-rendering:optimizeQuality; fill-rule:evenodd; clip-rule:evenodd" xmlns:xlink="http://www.w3.org/1999/xlink">
<g><path style="opacity:0.965" fill="#fefffe" d="M 39.5,3.5 C 67.9223,0.452161 86.4223,12.4522 95,39.5C 98.5361,67.9428 86.7027,86.4428 59.5,95C 31.0572,98.5361 12.5572,86.7027 4,59.5C 0.672469,31.0314 12.5058,12.3647 39.5,3.5 Z M 29.5,29.5 C 42.8333,29.5 56.1667,29.5 69.5,29.5C 69.5,32.1667 69.5,34.8333 69.5,37.5C 56.1667,37.5 42.8333,37.5 29.5,37.5C 29.5,34.8333 29.5,32.1667 29.5,29.5 Z M 30.5,46.5 C 42.9933,45.34 55.6599,45.1733 68.5,46C 62.5406,56.0883 56.2073,65.9216 49.5,75.5C 42.8942,65.9392 36.5608,56.2726 30.5,46.5 Z"/></g>
</svg>
