<?xml version="1.0" encoding="UTF-8"?>
<!DOCTYPE svg PUBLIC "-//W3C//DTD SVG 1.1//EN" "http://www.w3.org/Graphics/SVG/1.1/DTD/svg11.dtd">
<svg xmlns="http://www.w3.org/2000/svg" version="1.1" width="100px" height="100px" style="shape-rendering:geometricPrecision; text-rendering:geometricPrecision; image-rendering:optimizeQuality; fill-rule:evenodd; clip-rule:evenodd" xmlns:xlink="http://www.w3.org/1999/xlink">
<g><path style="opacity:0.896" fill="#fefffe" d="M 99.5,61.5 C 99.5,62.1667 99.5,62.8333 99.5,63.5C 93.8643,69.9771 88.3643,76.6438 83,83.5C 77.0469,76.4251 71.2136,69.2584 65.5,62C 69.8206,61.501 74.1539,61.3343 78.5,61.5C 78.6666,48.8289 78.4999,36.1623 78,23.5C 77.1667,22.6667 76.3333,21.8333 75.5,21C 61.8212,20.8327 48.1545,20.3327 34.5,19.5C 32.31,17.1443 30.31,14.6443 28.5,12C 45.1667,11.3333 61.8333,11.3333 78.5,12C 82.6667,13.5 85.5,16.3333 87,20.5C 87.4999,34.1626 87.6666,47.8293 87.5,61.5C 91.5,61.5 95.5,61.5 99.5,61.5 Z"/></g>
<g><path style="opacity:0.883" fill="#fefffe" d="M -0.5,37.5 C -0.5,36.8333 -0.5,36.1667 -0.5,35.5C 5.13571,29.0229 10.6357,22.3562 16,15.5C 21.7388,21.9825 27.2388,28.6491 32.5,35.5C 34.0453,36.4519 35.712,36.7852 37.5,36.5C 38.5,43.8333 39.5,51.1667 40.5,58.5C 38.8333,58.5 37.1667,58.5 35.5,58.5C 35.5,57.1667 35.5,55.8333 35.5,54.5C 33.1432,54.3367 30.8098,54.5034 28.5,55C 27.1084,58.3811 24.7751,59.2145 21.5,57.5C 24.5785,51.0087 27.9118,44.6754 31.5,38.5C 27.8927,37.5108 24.226,37.1774 20.5,37.5C 20.3334,50.1711 20.5001,62.8377 21,75.5C 21.8333,76.3333 22.6667,77.1667 23.5,78C 37.1788,78.1673 50.8455,78.6673 64.5,79.5C 66.69,81.8557 68.69,84.3557 70.5,87C 53.8333,87.6667 37.1667,87.6667 20.5,87C 16.3333,85.5 13.5,82.6667 12,78.5C 11.5001,64.8374 11.3334,51.1707 11.5,37.5C 7.5,37.5 3.5,37.5 -0.5,37.5 Z M 32.5,45.5 C 33.9313,46.7804 34.5979,48.4471 34.5,50.5C 33.1266,50.6567 31.7932,50.49 30.5,50C 31.5822,48.6703 32.2488,47.1703 32.5,45.5 Z"/></g>
<g><path style="opacity:0.799" fill="#fefffe" d="M 60.5,36.5 C 64.4155,37.2668 68.4155,37.7668 72.5,38C 75.071,41.2814 75.071,44.6148 72.5,48C 74.3816,52.2906 73.3816,55.6239 69.5,58C 65.1794,58.499 60.8461,58.6657 56.5,58.5C 57.4543,51.0647 58.7876,43.7313 60.5,36.5 Z M 64.5,41.5 C 65.8734,41.3433 67.2068,41.51 68.5,42C 69.4506,42.7175 69.6172,43.5509 69,44.5C 64.6356,46.5441 63.1356,45.5441 64.5,41.5 Z M 63.5,49.5 C 68.2442,49.0384 69.2442,50.5384 66.5,54C 65.2068,54.49 63.8734,54.6567 62.5,54.5C 62.366,52.7085 62.6993,51.0418 63.5,49.5 Z"/></g>
</svg>
