<?xml version="1.0" encoding="UTF-8"?>
<!DOCTYPE svg PUBLIC "-//W3C//DTD SVG 1.1//EN" "http://www.w3.org/Graphics/SVG/1.1/DTD/svg11.dtd">
<svg xmlns="http://www.w3.org/2000/svg" version="1.1" width="100px" height="100px" style="shape-rendering:geometricPrecision; text-rendering:geometricPrecision; image-rendering:optimizeQuality; fill-rule:evenodd; clip-rule:evenodd" xmlns:xlink="http://www.w3.org/1999/xlink">
<g><path style="opacity:0.894" fill="#fefffe" d="M 40.5,9.5 C 55.4463,7.10548 68.2796,11.1055 79,21.5C 79.3333,18.5 79.6667,15.5 80,12.5C 82.0483,10.213 84.2149,10.0464 86.5,12C 87.4817,19.747 87.815,27.5803 87.5,35.5C 79.8261,35.6664 72.1594,35.4997 64.5,35C 62.213,32.9517 62.0464,30.7851 64,28.5C 66.405,27.7256 68.905,27.2256 71.5,27C 59.4067,17.3256 46.4067,15.9922 32.5,23C 23.3321,29.8284 18.1654,38.9951 17,50.5C 11.8154,53.3121 9.31539,51.6454 9.5,45.5C 12,26.6721 22.3333,14.6721 40.5,9.5 Z"/></g>
<g><path style="opacity:0.892" fill="#fefffe" d="M 84.5,46.5 C 88.8384,46.847 90.5051,49.1803 89.5,53.5C 87.1905,72.3112 76.8572,84.1445 58.5,89C 43.5514,91.8921 30.7181,88.0588 20,77.5C 19.6667,80.5 19.3333,83.5 19,86.5C 16.9517,88.787 14.7851,88.9536 12.5,87C 11.5183,79.253 11.185,71.4197 11.5,63.5C 19.1739,63.3336 26.8406,63.5003 34.5,64C 36.787,66.0483 36.9536,68.2149 35,70.5C 32.595,71.2744 30.095,71.7744 27.5,72C 39.5778,81.6977 52.5778,83.031 66.5,76C 75.3304,69.846 80.1638,61.346 81,50.5C 81.6897,48.6498 82.8564,47.3164 84.5,46.5 Z"/></g>
</svg>
