<?xml version="1.0" encoding="UTF-8"?>
<!DOCTYPE svg PUBLIC "-//W3C//DTD SVG 1.1//EN" "http://www.w3.org/Graphics/SVG/1.1/DTD/svg11.dtd">
<svg xmlns="http://www.w3.org/2000/svg" version="1.1" width="100px" height="100px" style="shape-rendering:geometricPrecision; text-rendering:geometricPrecision; image-rendering:optimizeQuality; fill-rule:evenodd; clip-rule:evenodd" xmlns:xlink="http://www.w3.org/1999/xlink">
<g><path style="opacity:0.929" fill="#fefffe" d="M 39.5,3.5 C 67.9223,0.452161 86.4223,12.4522 95,39.5C 98.5361,67.9428 86.7027,86.4428 59.5,95C 31.0572,98.5361 12.5572,86.7027 4,59.5C 2.1242,47.9042 3.79086,36.9042 9,26.5C 9.33333,20.1667 9.66667,13.8333 10,7.5C 12.8408,5.49629 16.0074,4.99629 19.5,6C 20.8659,7.59982 21.8659,9.43315 22.5,11.5C 27.8751,7.97637 33.5418,5.30971 39.5,3.5 Z M 40.5,8.5 C 65.6754,5.99187 82.1754,16.6585 90,40.5C 92.994,65.6944 82.494,82.1944 58.5,90C 36.43,92.8846 20.5966,84.3846 11,64.5C 8.5828,59.3291 8.0828,53.9958 9.5,48.5C 13.5918,76.7466 29.9251,89.5799 58.5,87C 77.4013,81.603 87.0679,69.103 87.5,49.5C 84.5067,21.3555 68.84,8.8555 40.5,12C 32.0677,14.048 25.0677,18.3814 19.5,25C 23.5,25.3333 27.5,25.6667 31.5,26C 32.8333,27 32.8333,28 31.5,29C 25.5092,29.4995 19.5092,29.6662 13.5,29.5C 13.1903,23.2424 13.5236,17.0758 14.5,11C 15.4491,10.3828 16.2825,10.5494 17,11.5C 17.3333,15.1667 17.6667,18.8333 18,22.5C 24.3712,15.9038 31.8712,11.2372 40.5,8.5 Z"/></g>
</svg>
